<?xml version="1.0" encoding="UTF-8" standalone="no" ?>
<!DOCTYPE svg PUBLIC "-//W3C//DTD SVG 1.1//EN" "http://www.w3.org/Graphics/SVG/1.1/DTD/svg11.dtd">
<svg xmlns="http://www.w3.org/2000/svg" xmlns:xlink="http://www.w3.org/1999/xlink" version="1.1" width="100" height="100" viewBox="0 0 100 100" xml:space="preserve">
<desc>Created with Fabric.js 5.2.4</desc>
<defs>
</defs>
<rect x="0" y="0" width="100%" height="100%" fill="transparent"></rect>
<g transform="matrix(1 0 0 1 50 50)" id="d7abd688-8d55-4b8e-8ac8-87f983be16f4"  >
<rect style="stroke: none; stroke-width: 1; stroke-dasharray: none; stroke-linecap: butt; stroke-dashoffset: 0; stroke-linejoin: miter; stroke-miterlimit: 4; fill: rgb(0,0,0); fill-rule: nonzero; opacity: 1;" vector-effect="non-scaling-stroke"  x="-50" y="-50" rx="0" ry="0" width="100" height="100" />
</g>
<g transform="matrix(Infinity NaN NaN Infinity 0 0)" id="7f2a927f-d095-46b3-8d63-a3624f8f375f"  >
</g>
<g transform="matrix(0.83 0 0 0.83 50 50)"  >
<g style="" vector-effect="non-scaling-stroke"   >
		<g transform="matrix(1 0 0 1 0.92 -13.95)"  >
<path style="stroke: none; stroke-width: 1; stroke-dasharray: none; stroke-linecap: butt; stroke-dashoffset: 0; stroke-linejoin: miter; stroke-miterlimit: 4; fill: rgb(255,255,255); fill-rule: nonzero; opacity: 1;" vector-effect="non-scaling-stroke"  transform=" translate(-64.93, -50.05)" d="M 23.064 6.845 C 22.773265261935265 6.855711105853265 22.502841777615654 6.996883914021053 22.327848321669343 7.22930316038877 C 22.152854865723032 7.461722406756486 22.091930898102547 7.760631912806253 22.162 8.043 L 43.034 92.523 C 43.11720405992415 92.8573961628264 43.37223853109619 93.12214948098648 43.70329059747802 93.21779590614287 C 44.03434266385987 93.31344233129927 44.39127758572228 93.22549710676807 44.64 92.987 L 107.423 32.587999999999994 C 107.67160560335729 32.34882019085895 107.77379156505611 31.99521635551137 107.69109229804972 31.66029463576481 C 107.60839303104335 31.325372916018253 107.35336205686443 31.059973508803044 107.022 30.963999999999995 L 23.366 6.882 C 23.267919846025045 6.853791228209757 23.165989135755655 6.841303028607215 23.064 6.845 z M 24.438 9.2 L 104.878 32.357 L 44.508 90.434 L 24.438000000000002 9.200000000000003 z" stroke-linecap="round" />
</g>
		<g transform="matrix(1 0 0 1 -9.56 -23.02)"  >
<path style="stroke: none; stroke-width: 1; stroke-dasharray: none; stroke-linecap: butt; stroke-dashoffset: 0; stroke-linejoin: miter; stroke-miterlimit: 4; fill: rgb(255,255,255); fill-rule: nonzero; opacity: 1;" vector-effect="non-scaling-stroke"  transform=" translate(-54.44, -40.98)" d="M 64.9 18.886 C 64.65569888365535 18.89005164615013 64.42200880565409 18.986529201288267 64.24600000000001 19.156 L 32.869 49.361 C 32.62041206968762 49.60032176176677 32.5183590939201 49.95407031406523 32.60127329287446 50.28902717750275 C 32.684187491828816 50.62398404094027 32.939476193307144 50.88927732584166 33.271 50.985 L 75.074 63.033 C 75.40546475383161 63.12840550845272 75.76265046051901 63.03983719784466 76.01114281124941 62.80062464444444 C 76.25963516197982 62.561412091044225 76.36172713569684 62.20785416989366 76.279 61.873000000000005 L 65.853 19.62 C 65.74492561724917 19.182898332328715 65.34920067300996 18.878430712756835 64.899 18.886000000000003 z M 64.38000000000001 21.708 L 74.00300000000001 60.714999999999996 L 35.414000000000016 49.592 L 64.38 21.708 z" stroke-linecap="round" />
</g>
		<g transform="matrix(1 0 0 1 -4.25 -18.71)"  >
<path style="stroke: none; stroke-width: 1; stroke-dasharray: none; stroke-linecap: butt; stroke-dashoffset: 0; stroke-linejoin: miter; stroke-miterlimit: 4; fill: rgb(255,255,255); fill-rule: nonzero; opacity: 1;" vector-effect="non-scaling-stroke"  transform=" translate(-59.75, -45.29)" d="M 49.327 33.835 C 49.03706994340281 33.84642467058657 48.767630975051816 33.98756791000138 48.593165968791155 34.21941251832111 C 48.4187009625305 34.451257126640826 48.35769045429285 34.74924452500381 48.427 35.031 L 53.603 56.019 C 53.685549698554624 56.35436685829948 53.940866850804824 56.62014658652354 54.27264990052778 56.716091311723275 C 54.60443295025074 56.81203603692302 54.96219732088996 56.72354667445989 55.211 56.484 L 70.798 41.463 C 71.04657056908196 41.22353631673725 71.14849071072516 40.86964286439723 71.0653615089879 40.53465074623022 C 70.98223230725064 40.199658628063204 70.72668564981731 39.934471530420126 70.395 39.839 L 49.63 33.872 C 49.53159925961922 33.843686037025805 49.429322636650774 33.8311968124389 49.327000000000005 33.835 z M 50.701 36.189 L 68.253 41.232 L 55.077 53.93 L 50.701 36.19 z" stroke-linecap="round" />
</g>
		<g transform="matrix(1 0 0 1 -4.25 -18.68)"  >
<path style="stroke: none; stroke-width: 1; stroke-dasharray: none; stroke-linecap: butt; stroke-dashoffset: 0; stroke-linejoin: miter; stroke-miterlimit: 4; fill: rgb(255,255,255); fill-rule: nonzero; opacity: 1;" vector-effect="non-scaling-stroke"  transform=" translate(-59.74, -45.32)" d="M 44.164 12.869 C 43.91935167725985 12.872799750161036 43.6852601097132 12.96929551082912 43.509 13.139 L 27.922 28.168 C 27.673412069687622 28.407321761766777 27.571359093920098 28.76107031406523 27.65427329287446 29.09602717750275 C 27.737187491828823 29.43098404094027 27.992476193307144 29.69627732584166 28.324 29.791999999999998 L 49.09 35.759 C 49.421464753831614 35.85440550845272 49.778650460519025 35.76583719784466 50.02714281124942 35.52662464444444 C 50.27563516197982 35.287412091044224 50.37772713569685 34.93385416989366 50.295 34.599000000000004 L 45.118 13.605000000000004 C 45.010320077585426 13.167500463819216 44.61449435527994 12.862540394747379 44.164 12.870000000000005 z M 43.642 15.693999999999999 L 48.019000000000005 33.441 L 30.465000000000007 28.397000000000002 L 43.64200000000001 15.694000000000003 z M 85.7 24.838 C 85.45604617479938 24.842303108841634 85.22275736674601 24.938762493488507 85.047 25.108 L 69.457 40.13 C 69.20951201519388 40.36983555958449 69.10854193941823 40.72335661937703 69.19203052851074 41.05772326507592 C 69.27551911760327 41.39208991077482 69.53081972987167 41.65665312305944 69.862 41.752 L 90.62599999999999 47.719 C 90.9574647538316 47.81440550845272 91.314650460519 47.72583719784466 91.5631428112494 47.48662464444444 C 91.81163516197981 47.247412091044225 91.91372713569683 46.89385416989366 91.83099999999999 46.559000000000005 L 86.654 25.572000000000006 C 86.54592561724917 25.13489833232872 86.15020067300996 24.83043071275684 85.7 24.838000000000008 z M 85.18 27.662 L 89.557 45.402 L 72.004 40.358000000000004 L 85.18 27.662 z M 54.524 54.844 C 54.28004617479938 54.848303108841634 54.04675736674601 54.94476249348851 53.871 55.114000000000004 L 38.281000000000006 70.134 C 38.032463215525894 70.37374743334631 37.93080828598689 70.72793123715002 38.014367706824075 71.06299419872921 C 38.09792712766125 71.39805716030843 38.35399038476217 71.66303168727151 38.68600000000001 71.758 L 59.458000000000006 77.725 C 59.789328186832286 77.81995042963457 60.14614701545404 77.73117493935348 60.39435512364469 77.49203755936914 C 60.64256323183534 77.25290017938478 60.744555231298094 76.89963201470074 60.662000000000006 76.565 L 55.47800000000001 55.578 C 55.36992561724918 55.14089833232871 54.974200673009975 54.83643071275683 54.52400000000001 54.844 z M 54.004 57.667 L 58.385999999999996 75.407 L 40.827999999999996 70.365 L 54.004 57.666999999999994 z" stroke-linecap="round" />
</g>
		<g transform="matrix(1 0 0 1 0 48.19)"  >
<path style="stroke: none; stroke-width: 1; stroke-dasharray: none; stroke-linecap: butt; stroke-dashoffset: 0; stroke-linejoin: miter; stroke-miterlimit: 4; fill: rgb(255,255,255); fill-rule: nonzero; opacity: 1;" vector-effect="non-scaling-stroke"  transform=" translate(-64, -112.19)" d="M 25.956 114.7 C 25.503999999999998 115.741 24.65 116.194 23.838 116.194 C 22.811 116.194 21.849 115.447 21.849 113.946 L 21.849 108.626 L 26.165 108.626 L 26.165 107.25500000000001 L 21.849 107.25500000000001 L 21.849 103.51400000000001 L 20.327 103.406 L 20.327 107.25500000000001 L 18.683000000000003 107.25500000000001 L 18.683000000000003 108.626 L 20.327 108.626 L 20.327 113.946 C 20.327 116.323 22.057000000000002 117.694 23.860000000000003 117.694 C 25.180000000000003 117.694 26.552000000000003 116.98400000000001 27.320000000000004 115.318 z M 38.716 116.23700000000001 L 38.716 112.13000000000001 C 38.716 109.58800000000001 37.653 106.97500000000001 35.018 106.97500000000001 C 33.754 106.97500000000001 32.433 107.55600000000001 31.938000000000002 108.45400000000001 L 31.938000000000002 103.51400000000001 L 30.422000000000004 103.406 L 30.422000000000004 117.414 L 31.937000000000005 117.414 L 31.937000000000005 110.07600000000001 C 32.39000000000001 109.179 33.029 108.49600000000001 34.27100000000001 108.49600000000001 C 36.06600000000001 108.49600000000001 37.09300000000001 109.947 37.09300000000001 111.742 L 37.09300000000001 117.414 L 38.82300000000001 117.414 C 38.71500000000001 117.048 38.71500000000001 116.624 38.71500000000001 116.237 z M 50.433 108.92000000000002 L 51.373 107.44800000000002 C 50.224999999999994 106.99600000000002 49.836999999999996 106.97500000000002 49.449999999999996 106.97500000000002 C 48.66 106.97500000000002 47.059 107.10400000000003 46.348 108.45400000000002 C 46.348 108.21700000000003 46.498 107.44800000000002 46.628 107.25400000000002 L 42.887 107.25400000000002 L 42.887 108.38900000000002 L 44.962 108.49700000000003 L 44.962 116.17200000000003 L 41.817 116.17200000000003 L 41.817 117.41400000000003 L 49.557 117.41400000000003 C 49.45 117.04800000000003 49.45 116.62400000000002 49.45 116.23700000000002 L 49.45 116.17200000000003 L 46.434000000000005 116.17200000000003 L 46.434000000000005 110.33500000000002 C 46.779 108.81300000000002 48.703 107.98000000000002 50.434000000000005 108.92000000000002 z M 58.13 106.97500000000002 C 55.222 106.97500000000002 53.7 108.87700000000002 53.621 112.15100000000002 L 53.621 113.07100000000003 C 53.621 115.76300000000003 55.545 117.69400000000003 58.216 117.69400000000003 C 59.717 117.69400000000003 61.103 117.04800000000003 62.086 115.97800000000004 L 61.189 114.86600000000004 C 60.033 115.97800000000004 59.071 116.30200000000005 58.173 116.30200000000005 C 56.378 116.30200000000005 55.115 114.97300000000006 55.115 113.07000000000005 L 62.367000000000004 113.02700000000004 L 62.388000000000005 112.15100000000004 C 62.51800000000001 108.85600000000004 61.017 106.97500000000004 58.13 106.97500000000004 z M 60.787000000000006 111.69900000000003 L 55.13700000000001 111.69900000000003 C 55.22200000000001 109.60900000000002 56.01200000000001 108.30300000000003 57.979000000000006 108.30300000000003 C 59.947 108.30300000000003 60.88700000000001 109.52300000000002 60.787000000000006 111.69900000000003 z M 69.891 106.97500000000002 C 66.983 106.97500000000002 65.46100000000001 108.87700000000002 65.375 112.15100000000002 L 65.375 113.07100000000003 C 65.375 115.76300000000003 67.299 117.69400000000003 69.977 117.69400000000003 C 71.4502722211482 117.6886563737767 72.85390855013956 117.06626879223944 73.84700000000001 115.97800000000004 L 72.95 114.86600000000004 C 71.794 115.97800000000004 70.83200000000001 116.30200000000005 69.934 116.30200000000005 C 68.139 116.30200000000005 66.876 114.97300000000006 66.876 113.07000000000005 L 74.128 113.02700000000004 L 74.149 112.15100000000004 C 74.279 108.85600000000004 72.778 106.97500000000004 69.891 106.97500000000004 z M 72.54100000000001 111.69900000000003 L 66.897 111.69900000000003 C 66.983 109.60900000000002 67.77300000000001 108.30300000000003 69.74000000000001 108.30300000000003 C 71.70800000000001 108.30300000000003 72.64800000000001 109.52300000000002 72.54 111.69900000000003 z M 80.45300000000002 116.56000000000003 C 80.45300000000002 117.28500000000003 80.86300000000001 117.69400000000003 81.58800000000002 117.69400000000003 C 82.29100000000003 117.69400000000003 82.70100000000002 117.28500000000003 82.70100000000002 116.56000000000003 C 82.70100000000002 115.85000000000004 82.29100000000003 115.44700000000003 81.58800000000002 115.44700000000003 C 80.88400000000003 115.44700000000003 80.45300000000002 115.84900000000003 80.45300000000002 116.56000000000003 z M 95.14300000000001 105.46000000000004 C 95.84700000000001 105.46000000000004 96.25700000000002 105.07200000000003 96.25700000000002 104.32500000000003 C 96.25700000000002 103.61500000000004 95.84700000000002 103.23400000000004 95.14400000000002 103.23400000000004 C 94.44000000000003 103.23400000000004 94.03100000000002 103.61400000000003 94.03100000000002 104.32500000000003 C 94.03100000000002 105.07200000000003 94.41800000000002 105.46000000000004 95.14400000000002 105.46000000000004 z M 92.43000000000002 107.25500000000004 L 92.43000000000002 108.38900000000004 L 94.52600000000002 108.49700000000004 L 94.52600000000002 117.41400000000004 C 94.52600000000002 118.92900000000004 93.56400000000002 119.66200000000005 92.53700000000002 119.66200000000005 C 91.69700000000002 119.66200000000005 90.84300000000002 119.20900000000005 90.39700000000002 118.18200000000004 L 89.04700000000003 118.77900000000004 C 89.81600000000003 120.47300000000004 91.18700000000003 121.15500000000004 92.51600000000002 121.15500000000004 C 94.31100000000002 121.15500000000004 96.04100000000003 119.80500000000005 96.04100000000003 117.41500000000005 L 96.06300000000003 107.25500000000005 z M 105.70600000000002 111.59900000000003 C 103.76000000000002 111.23200000000003 102.86200000000002 110.75900000000003 102.86200000000002 109.94700000000003 C 102.86200000000002 109.02800000000003 103.97500000000002 108.36700000000003 105.53300000000003 108.36700000000003 C 106.64600000000003 108.36700000000003 107.39300000000003 108.70500000000003 108.22600000000003 109.58800000000004 L 109.18800000000003 108.62600000000003 C 108.44100000000003 107.55600000000004 107.07700000000003 106.97500000000004 105.36100000000003 106.97500000000004 C 103.01300000000003 106.97500000000004 101.42600000000003 108.17400000000004 101.42600000000003 109.99000000000004 C 101.42600000000003 111.57700000000004 102.64600000000003 112.49600000000004 105.57600000000004 113.09200000000004 C 107.35000000000004 113.43700000000004 107.88800000000003 113.75200000000004 107.88800000000003 114.44200000000004 C 107.88800000000003 115.44700000000003 106.66800000000003 116.32300000000004 105.27500000000003 116.32300000000004 C 104.08300000000004 116.32300000000004 103.01300000000003 115.66300000000004 102.02900000000004 114.50700000000003 L 101.00300000000004 115.55500000000004 C 102.05100000000004 116.94100000000003 103.43700000000004 117.69500000000004 105.25300000000004 117.69500000000004 C 107.71600000000004 117.69500000000004 109.31700000000004 116.32300000000004 109.31700000000004 114.42000000000003 C 109.31700000000004 112.87700000000002 108.26900000000003 112.08700000000003 105.70600000000003 111.59900000000003 z M 105.70600000000002 111.59900000000003" stroke-linecap="round" />
</g>
</g>
</g>
</svg>